<?xml version="1.0" encoding="utf-8"?>
<!-- Generator: Adobe Illustrator 24.3.0, SVG Export Plug-In . SVG Version: 6.00 Build 0)  -->
<svg version="1.1" xmlns="http://www.w3.org/2000/svg" xmlns:xlink="http://www.w3.org/1999/xlink" x="0px" y="0px"
	 viewBox="0 0 3000 2200" style="enable-background:new 0 0 3000 2200;" xml:space="preserve">
<style type="text/css">
	.st0{fill:#2563EB;}
</style>
<g id="background">
</g>
<g id="objects">
	<path class="st0" d="M2174,1053.2c0,0-142.5,104.8-244.9,290.9l130.1,3.8c-33.9,79-155.1,317.7-382.1,317.7c-0.3,0-0.5,0-0.8,0
		c-39.7-0.2-71.6-32.8-71.6-72.4V757.3h223c17.4,36.9,55,62.4,98.5,62.4c60.7,0,109.8-49.6,108.9-110.5
		c-0.9-59.6-50.3-107.9-110-107.3c-43.1,0.4-80.2,25.8-97.5,62.4h-223v-190c62.2-24.3,106.2-84.9,106-155.8
		c-0.3-92.3-76.6-167.3-168.8-166.1c-91,1.2-164.4,75.3-164.4,166.6c0,70.6,43.9,131,106,155.2v190h-220.6
		c-17.3-36.6-54.4-62-97.5-62.4c-59.6-0.6-109.1,47.7-110,107.3c-0.9,60.9,48.2,110.5,108.9,110.5c43.5,0,81.1-25.5,98.5-62.4h220.6
		v835.9c0,39.7-31.9,72.2-71.6,72.4c-0.3,0-0.5,0-0.8,0c-227,0-348.3-238.7-382.1-317.7l130.1-3.8
		C1056.4,1158,914,1053.2,914,1053.2C823.3,1188.7,795,1436,795,1436l114.1-59.9c22.5,97.6,112.3,365.5,435.9,505
		c101.7,43.9,167.2,95.8,190,115.5c5.2,4.5,12.9,4.5,18.1,0c22.8-19.7,88.3-71.7,190-115.5c323.6-139.5,413.4-407.5,435.9-505
		l114.1,59.9C2292.9,1436,2264.7,1188.7,2174,1053.2z M1461,319c0-45.9,37.2-83,83-83c45.9,0,83,37.2,83,83s-37.2,83-83,83
		C1498.1,402,1461,364.9,1461,319z"/>
</g>
</svg>
