<svg xmlns="http://www.w3.org/2000/svg" viewBox="0 0 288.63 219.19"><defs><style>.cls-1{fill:#2563eb;}</style></defs><g id="Layer_2" data-name="Layer 2"><g id="Layer_1-2" data-name="Layer 1"><path class="cls-1" d="M277.81,198.35c-20.38-18.91-61.24-56.06-98.28-85.14a4.6,4.6,0,0,1,0-7.24c37.15-29.18,77.93-66.25,98.29-85.13a4.61,4.61,0,0,1,7.72,2.95c4.13,43.42,4.13,128.19,0,171.61A4.61,4.61,0,0,1,277.81,198.35ZM271.68,14c-25.31,23.48-82.82,75.66-124.74,104.79a4.6,4.6,0,0,1-5.26,0C99.76,89.62,42.26,37.44,17,14A4.61,4.61,0,0,1,19.42,6C45.1,2.31,91.24,0,144.31,0s99.21,2.31,124.9,6A4.61,4.61,0,0,1,271.68,14ZM3.09,195.41C-1,152-1,67.21,3.09,23.79a4.61,4.61,0,0,1,7.73-2.95C31.17,39.72,72,76.8,109.1,106a4.6,4.6,0,0,1,0,7.24c-37,29.09-77.91,66.24-98.28,85.14A4.61,4.61,0,0,1,3.09,195.41Zm13.85,9.83c20.91-19.4,63.78-58.38,101.61-87.71a4.62,4.62,0,0,1,5.58-.07c6.12,4.55,12,8.76,17.62,12.5h0a4.63,4.63,0,0,0,5.12,0h0c5.59-3.74,11.51-8,17.62-12.5a4.62,4.62,0,0,1,5.58.07c37.83,29.33,80.71,68.31,101.61,87.71a4.61,4.61,0,0,1-2.47,7.94c-25.69,3.7-71.82,6-124.9,6s-99.21-2.31-124.9-6A4.61,4.61,0,0,1,16.94,205.24Z"/></g></g></svg>